<svg width="122" height="122" viewBox="0 0 122 122" fill="none" xmlns="http://www.w3.org/2000/svg">
<path d="M0 24C0 10.7452 10.7452 0 24 0H98C111.255 0 122 10.7452 122 24V98C122 111.255 111.255 122 98 122H24C10.7452 122 0 111.255 0 98V24Z" fill="#FDB33A"/>
<path d="M23.748 122V43.916H52.476C58.164 43.916 63.258 44.906 67.758 46.886C72.258 48.83 75.804 51.71 78.396 55.526C81.024 59.342 82.338 64.004 82.338 69.512C82.338 74.696 81.186 79.124 78.882 82.796C76.578 86.468 73.338 89.276 69.162 91.22C65.022 93.164 60.144 94.136 54.528 94.136H39.624V122H23.748ZM39.462 81.932H54.096C58.056 81.932 61.296 80.672 63.816 78.152C66.336 75.596 67.596 72.446 67.596 68.702C67.596 64.814 66.264 61.736 63.6 59.468C60.936 57.164 57.696 56.012 53.88 56.012H39.462V81.932Z" fill="black"/>
</svg>
